<svg xmlns="http://www.w3.org/2000/svg" viewBox="0 0 24 24" fill="none">
  <path d="M22.2 8.4c.3-1.4.1-2.8-.6-4.1C20.5 2.2 18 1.1 15.5 1.5c-1-.9-2.3-1.4-3.6-1.5C9.4-.1 7 1.2 5.9 3.4c-1.4.2-2.6.9-3.5 2C1 7.1.8 9.7 1.8 11.6c-.3 1.4-.1 2.8.6 4.1 1.1 2.1 3.6 3.2 6.1 2.8 1 .9 2.3 1.4 3.6 1.5 2.5.1 4.9-1.2 6-3.4 1.4-.2 2.6-.9 3.5-2 1.4-1.7 1.6-4.3.6-6.2zM12 20.5c-1.1 0-2-.3-2.8-.9l.1-.1 4.7-2.7c.2-.1.4-.4.4-.7V10l2 1.1v6.1c0 1.8-1.9 3.3-4.4 3.3zM4.2 17c-.5-1-.7-2-.5-3.1l.1.1 4.7 2.7c.2.1.5.1.7 0l5.7-3.3v2.3l-4.8 2.8c-2.2 1.3-5 .5-6-1.5zM3 8.1c.6-1 1.5-1.7 2.5-2.1v5.6c0 .3.1.5.4.7l5.7 3.3-2 1.1L4.9 14c-2.2-1.3-3-4-1.9-5.9zm15.3 3.6l-5.7-3.3 2-1.1 4.8 2.8c2.2 1.3 3 4 1.8 5.9-.5 1-1.5 1.7-2.5 2.1V12.5c0-.3-.2-.6-.4-.8zM20 8.6l-.1-.1-4.7-2.7c-.2-.1-.5-.1-.7 0L8.8 9.1V6.8l4.8-2.8c2.2-1.3 5.1-.5 6 1.6.5.9.7 2 .4 3z" fill="#ffffff"/>
</svg>
